<svg xmlns="http://www.w3.org/2000/svg" xmlns:xlink="http://www.w3.org/1999/xlink" width="500" zoomAndPan="magnify" viewBox="0 0 375 374.999991" height="500" preserveAspectRatio="xMidYMid meet" version="1.0"><defs><g/></defs><g fill="#ffffff" fill-opacity="1"><g transform="translate(0.0000045, 210.296)"><g><path d="M 27.796875 -67.84375 C 33.429688 -67.84375 38.367188 -66.894531 42.609375 -65 C 46.847656 -63.101562 50.375 -60.539062 53.1875 -57.3125 C 56 -54.082031 58.113281 -50.441406 59.53125 -46.390625 C 60.957031 -42.347656 61.671875 -38.191406 61.671875 -33.921875 C 61.671875 -29.648438 60.957031 -25.488281 59.53125 -21.4375 C 58.113281 -17.394531 56 -13.757812 53.1875 -10.53125 C 50.375 -7.300781 46.847656 -4.738281 42.609375 -2.84375 C 38.367188 -0.945312 33.429688 0 27.796875 0 L 7.59375 0 L 7.59375 -67.84375 Z M 27.796875 -54.28125 L 21.15625 -54.28125 L 21.15625 -13.5625 L 27.796875 -13.5625 C 31.597656 -13.5625 34.84375 -14.289062 37.53125 -15.75 C 40.21875 -17.207031 42.367188 -19.148438 43.984375 -21.578125 C 45.597656 -24.015625 46.671875 -26.6875 47.203125 -29.59375 C 47.742188 -32.507812 47.742188 -35.40625 47.203125 -38.28125 C 46.671875 -41.164062 45.597656 -43.820312 43.984375 -46.25 C 42.367188 -48.6875 40.21875 -50.632812 37.53125 -52.09375 C 34.84375 -53.550781 31.597656 -54.28125 27.796875 -54.28125 Z M 27.796875 -54.28125 "/></g></g></g><g fill="#ffffff" fill-opacity="1"><g transform="translate(66.79898, 210.296)"><g><path d="M 21.15625 0 L 7.59375 0 L 7.59375 -67.84375 L 21.15625 -67.84375 Z M 21.15625 0 "/></g></g></g><g fill="#ffffff" fill-opacity="1"><g transform="translate(95.643992, 210.296)"><g><path d="M 4.453125 -4.359375 L 6.171875 -18.59375 C 8.765625 -16.757812 11.34375 -15.445312 13.90625 -14.65625 C 16.46875 -13.863281 18.789062 -13.40625 20.875 -13.28125 C 22.957031 -13.15625 24.507812 -13.125 25.53125 -13.1875 C 27.550781 -13.3125 29.269531 -14.019531 30.6875 -15.3125 C 32.113281 -16.613281 32.734375 -18.179688 32.546875 -20.015625 C 32.421875 -21.984375 31.691406 -23.472656 30.359375 -24.484375 C 29.035156 -25.492188 27.425781 -26.316406 25.53125 -26.953125 C 21.988281 -28.273438 18.679688 -29.804688 15.609375 -31.546875 C 12.535156 -33.285156 10.066406 -35.453125 8.203125 -38.046875 C 6.335938 -40.640625 5.40625 -43.835938 5.40625 -47.640625 C 5.40625 -51.429688 6.210938 -54.859375 7.828125 -57.921875 C 9.441406 -60.992188 11.703125 -63.445312 14.609375 -65.28125 C 17.523438 -67.113281 20.847656 -68.128906 24.578125 -68.328125 C 26.347656 -68.453125 28.515625 -68.382812 31.078125 -68.125 C 33.640625 -67.875 37.101562 -66.988281 41.46875 -65.46875 L 39.765625 -52.375 C 36.023438 -53.894531 33.046875 -54.765625 30.828125 -54.984375 C 28.617188 -55.210938 26.976562 -55.289062 25.90625 -55.21875 C 23.5 -55.09375 21.742188 -54.269531 20.640625 -52.75 C 19.535156 -51.238281 19.046875 -49.535156 19.171875 -47.640625 C 19.359375 -45.734375 20.175781 -44.289062 21.625 -43.3125 C 23.082031 -42.332031 24.796875 -41.492188 26.765625 -40.796875 C 30.304688 -39.535156 33.5625 -37.972656 36.53125 -36.109375 C 39.507812 -34.242188 41.898438 -32 43.703125 -29.375 C 45.503906 -26.75 46.40625 -23.628906 46.40625 -20.015625 C 46.40625 -16.285156 45.582031 -12.898438 43.9375 -9.859375 C 42.289062 -6.828125 39.929688 -4.394531 36.859375 -2.5625 C 33.796875 -0.726562 30.144531 0.3125 25.90625 0.5625 C 24.632812 0.632812 22.90625 0.585938 20.71875 0.421875 C 18.539062 0.265625 16.0625 -0.175781 13.28125 -0.90625 C 10.5 -1.632812 7.554688 -2.785156 4.453125 -4.359375 Z M 4.453125 -4.359375 "/></g></g></g><g fill="#ffffff" fill-opacity="1"><g transform="translate(145.838107, 210.296)"><g><path d="M 50.765625 -52.09375 C 49.503906 -52.789062 47.96875 -53.453125 46.15625 -54.078125 C 44.351562 -54.710938 41.96875 -55.03125 39 -55.03125 C 35.144531 -55.03125 31.851562 -54.285156 29.125 -52.796875 C 26.40625 -51.316406 24.222656 -49.34375 22.578125 -46.875 C 20.929688 -44.40625 19.820312 -41.695312 19.25 -38.75 C 18.6875 -35.8125 18.6875 -32.875 19.25 -29.9375 C 19.820312 -27 20.929688 -24.296875 22.578125 -21.828125 C 24.222656 -19.359375 26.40625 -17.378906 29.125 -15.890625 C 31.851562 -14.410156 35.144531 -13.671875 39 -13.671875 C 41.96875 -13.671875 44.578125 -14.015625 46.828125 -14.703125 C 49.078125 -15.398438 50.832031 -16.066406 52.09375 -16.703125 L 53.890625 -2.65625 C 51.804688 -1.832031 49.40625 -1.148438 46.6875 -0.609375 C 43.96875 -0.078125 41.40625 0.1875 39 0.1875 C 33.238281 0.1875 28.207031 -0.773438 23.90625 -2.703125 C 19.601562 -4.628906 16.015625 -7.238281 13.140625 -10.53125 C 10.265625 -13.820312 8.113281 -17.503906 6.6875 -21.578125 C 5.269531 -25.660156 4.5625 -29.882812 4.5625 -34.25 C 4.5625 -38.613281 5.269531 -42.835938 6.6875 -46.921875 C 8.113281 -51.003906 10.265625 -54.6875 13.140625 -57.96875 C 16.015625 -61.257812 19.601562 -63.867188 23.90625 -65.796875 C 28.207031 -67.734375 33.238281 -68.703125 39 -68.703125 C 43.9375 -68.703125 48.394531 -67.816406 52.375 -66.046875 Z M 50.765625 -52.09375 "/></g></g></g><g fill="#ffffff" fill-opacity="1"><g transform="translate(202.958828, 210.296)"><g><path d="M 1.515625 0 L 30.078125 -70.3125 L 31.5 -70.3125 L 60.0625 0 L 44.78125 0 L 42.03125 -7.3125 L 19.546875 -7.3125 L 16.890625 0 Z M 24.484375 -20.015625 L 37 -20.015625 L 30.84375 -37.671875 Z M 24.484375 -20.015625 "/></g></g></g><g fill="#ffffff" fill-opacity="1"><g transform="translate(264.918677, 210.296)"><g><path d="M 41.375 0 L 27.703125 -25.90625 L 21.15625 -25.90625 L 21.15625 0 L 7.59375 0 L 7.59375 -67.84375 L 34.34375 -67.84375 C 38.394531 -67.84375 41.828125 -67.003906 44.640625 -65.328125 C 47.460938 -63.648438 49.660156 -61.46875 51.234375 -58.78125 C 52.816406 -56.09375 53.796875 -53.179688 54.171875 -50.046875 C 54.554688 -46.921875 54.320312 -43.851562 53.46875 -40.84375 C 52.613281 -37.84375 51.15625 -35.1875 49.09375 -32.875 C 47.039062 -30.570312 44.34375 -28.945312 41 -28 L 56.75 0 Z M 21.15625 -39.09375 L 33.109375 -39.09375 C 34.953125 -39.09375 36.425781 -39.597656 37.53125 -40.609375 C 38.632812 -41.617188 39.375 -42.882812 39.75 -44.40625 C 40.132812 -45.925781 40.132812 -47.441406 39.75 -48.953125 C 39.375 -50.472656 38.632812 -51.738281 37.53125 -52.75 C 36.425781 -53.769531 34.953125 -54.28125 33.109375 -54.28125 L 21.15625 -54.28125 Z M 21.15625 -39.09375 "/></g></g></g><g fill="#ffffff" fill-opacity="1"><g transform="translate(323.083104, 210.296)"><g><path d="M 32.359375 0 L 18.78125 0 L 18.78125 -54.28125 L 1.890625 -54.28125 L 1.890625 -67.75 L 49.25 -67.75 L 49.25 -54.28125 L 32.359375 -54.28125 Z M 32.359375 0 "/></g></g></g></svg>